<svg width="1441" height="600" viewBox="0 0 1441 600" xmlns="http://www.w3.org/2000/svg" xmlns:xlink="http://www.w3.org/1999/xlink"><title>postman-hero</title><defs><linearGradient x1="50%" y1="-2.333%" x2="50%" y2="99.547%" id="b"><stop stop-color="#5D6380" offset="0%"/><stop stop-color="#626B88" offset="6%"/><stop stop-color="#697695" offset="18%"/><stop stop-color="#6C7A99" offset="30%"/><stop stop-color="#907D8D" offset="52%"/><stop stop-color="#ED8370" offset="100%"/><stop stop-color="#ED8370" offset="100%"/></linearGradient><path id="a" d="M.35 0h1440v600H.35z"/><path d="M1.942 18.15L21.104 1.143a4.5 4.5 0 0 1 6.353.379l5.337 6.013a4.5 4.5 0 0 1-.379 6.353L13.254 30.894a4.5 4.5 0 0 1-6.353-.378l-5.337-6.014a4.5 4.5 0 0 1 .378-6.352z" id="d"/><path d="M13.35 31.42L33 14a4.2 4.2 0 0 0 .35-5.93l-5.73-6.46a4.2 4.2 0 0 0-5.93-.35L2 18.68a4.2 4.2 0 0 0-.35 5.93l5.73 6.46a4.2 4.2 0 0 0 5.97.35z" id="f"/><path d="M52.75 54.08l18.69 14.33a4 4 0 0 0 5.14-.5l4-4.09a4 4 0 0 0-.06-5.62l-32.1-31.64 3.74-3.27a3.15 3.15 0 0 0 1.06-2.11 4.07 4.07 0 0 0 2.54-1l2.77-2.43a4.08 4.08 0 0 0 1.39-3 3.87 3.87 0 0 0 3.12-.91l2.17-1.9a3.89 3.89 0 0 0 .36-5.47l-3.76-4.29a3.89 3.89 0 0 0-5.47-.36l-2.17 1.9a3.87 3.87 0 0 0-1.31 3 4.08 4.08 0 0 0-3.2 1L46.87 10a4.06 4.06 0 0 0-1.31 2.29 3.16 3.16 0 0 0-2.35.77l-4.86 4.26-19.88 17.41-4.26 3.73a3.17 3.17 0 0 0-1 3.17 4.08 4.08 0 0 0-3.2 1l-2.77 2.43a4.07 4.07 0 0 0-1.33 2.37 3.84 3.84 0 0 0-2.25.94l-2.17 1.9a3.89 3.89 0 0 0-.36 5.47l3.76 4.29a3.89 3.89 0 0 0 5.47.36l2.17-1.9a3.85 3.85 0 0 0 1.27-2.32 4.06 4.06 0 0 0 2.3-1l2.77-2.43a4.09 4.09 0 0 0 1.37-3.4 3.17 3.17 0 0 0 2.85-.69l2.63-2.31 27.34 36.27a4 4 0 0 0 5.57.8l4.58-3.4a4 4 0 0 0 1.17-5L52.75 54.08z" id="h"/><path id="j" d="M12.323.898l24.405 26.737-11.935 10.894L.388 11.793z"/><circle id="l" cx="8.021" cy="8.807" r="5.534"/><circle id="n" cx="5.294" cy="4.598" r="3.2"/><circle id="p" cx="10.75" cy="9.7" r="9.44"/><circle id="r" cx="10.75" cy="9.75" r="9.44"/><path d="M.87.47c0 10.886 8.824 19.71 19.71 19.71 10.886 0 19.71-8.824 19.71-19.71H.87z" id="t"/><circle id="v" cx="6.06" cy="6.27" r="5.89"/><circle id="x" cx="7.06" cy="6.75" r="5.89"/><circle id="z" cx="6.06" cy="6.23" r="5.89"/><circle id="B" cx="5.37" cy="5.21" r="5.1"/><circle id="D" cx="5.58" cy="5.33" r="5.1"/><path d="M25.134 10.546c0 6.265-5.625 11.345-12.564 11.345S.006 16.81.006 10.546C.006 3.296.006.269 12.57.269s12.564 3.028 12.564 10.277" id="F"/></defs><g fill="none" fill-rule="evenodd"><mask id="c" fill="#fff"><use xlink:href="#a"/></mask><use fill="url(#b)" fill-rule="nonzero" xlink:href="#a"/><path d="M.35 458a126.53 126.53 0 0 0 85.43-28.25l41.9-34" stroke="#FFF" stroke-width="2" stroke-linecap="round" stroke-dasharray="5,10" mask="url(#c)"/><path d="M1231.85 261.51a204.64 204.64 0 0 0-133.2 49 204.94 204.94 0 0 0-152.4-67.67c-105.23 0-192 79.12-204 181.11a206.35 206.35 0 0 0-41.94-4.29c-113.47 0-205.46 92-205.46 205.46a204.62 204.62 0 0 0 20.77 90.11H885a204.08 204.08 0 0 0 19.35-65.75 205.79 205.79 0 0 0 175.15-44.75 204.93 204.93 0 0 0 152.4 67.67c113.47 0 205.46-92 205.46-205.46 0-113.46-92.03-205.43-205.51-205.43z" fill="#EB816F" fill-rule="nonzero" mask="url(#c)"/><path d="M1485.44 274.16A71.36 71.36 0 0 0 1499 165.58c22.08-27.784 20.283-67.598-4.21-93.28a63.14 63.14 0 0 0 31.64-54.46c0-35.06-29.13-63.47-65.06-63.47-35.93 0-65.06 28.42-65.06 63.47A62.17 62.17 0 0 0 1409 55.56c-24.94 11.24-42.4 35.56-43.14 64a44.92 44.92 0 0 0-10.66-1.28c-24.21 0-43.84 19.15-43.84 42.77a42.14 42.14 0 0 0 13.4 30.76c-23.16 10.4-39.24 33.22-39.24 59.72 0 32.58 24.3 59.61 56.18 64.81a88.77 88.77 0 0 0-5.43 30.63c0 50.22 41.73 90.93 93.21 90.93s93.21-40.71 93.21-90.93c.04-29.81-14.6-56.23-37.25-72.81z" fill="#4E687A" fill-rule="nonzero" mask="url(#c)"/><path d="M1324.42 252.17c38.672 35.534 55.45 89 44.013 140.257-11.437 51.258-49.35 92.521-99.46 108.245-50.11 15.725-104.8 3.522-143.473-32.012m-137.8-69.39s33.91 39.54 97.2 13.52" stroke="#FFF" stroke-width="2" stroke-linecap="round" stroke-dasharray="5,10" mask="url(#c)"/><g mask="url(#c)" fill-rule="nonzero"><g transform="translate(931 326)"><circle fill="#E8E0CB" cx="298.35" cy="298.61" r="270.86"/><path d="M484.71 311.24c-23.11-3.28-42.59-13.44-48.46-25.29a11.12 11.12 0 0 1 2.78-13.44c9.93-8.43 30.17-11.91 51.57-8.87 23.59 3.35 43.16 13.73 48.72 25.83a10.85 10.85 0 0 1-2.64 12.55c-9.79 8.69-30.19 12.31-51.97 9.22zm5.25-43c-20.16-2.86-39 .21-47.94 7.82a6.52 6.52 0 0 0-1.63 7.87c5.14 10.38 23.64 19.74 45 22.77 20.18 2.86 39.57-.39 48.26-8.1a6.2 6.2 0 0 0 1.51-7.17c-4.87-10.59-23.45-20.13-45.16-23.21l-.04.02z" fill="#F2F2F0"/><ellipse fill="#7D728E" transform="rotate(-81.92 488.898 283.313)" cx="488.898" cy="283.313" rx="25.31" ry="52.77"/><ellipse fill="#D9D4C1" transform="rotate(-81.951 486.255 289.753)" cx="486.255" cy="289.753" rx="25.306" ry="52.762"/><circle fill="#E8E0CB" opacity=".18" cx="298.35" cy="298.61" r="298.2"/></g></g><path d="M1376 460c-9.12-5-15.65-12.23-16.25-18.08a5 5 0 0 1 3.25-5.17c5.45-2 14.42-.26 22.87 4.33 9.31 5.07 15.85 12.44 16.28 18.35a4.83 4.83 0 0 1-3.06 4.82c-5.44 2.06-14.5.39-23.09-4.25zm8.89-17.11c-8-4.33-16.27-6-21.19-4.21a2.9 2.9 0 0 0-1.91 3c.53 5.12 6.78 11.9 15.19 16.49 8 4.33 16.55 6 21.37 4.14a2.76 2.76 0 0 0 1.75-2.75c-.38-5.17-6.63-12.03-15.22-16.7l.01.03z" fill="#F2F2F0" fill-rule="nonzero" mask="url(#c)"/><ellipse fill="#7D728E" fill-rule="nonzero" mask="url(#c)" transform="rotate(-61.43 1382.144 449.035)" cx="1382.144" cy="449.035" rx="11.26" ry="23.47"/><ellipse fill="#D9D4C1" fill-rule="nonzero" mask="url(#c)" transform="rotate(-61.43 1380.353 451.533)" cx="1380.353" cy="451.533" rx="11.26" ry="23.47"/><path d="M1028.19 573c-9.63 3.89-19.39 4.33-24.29 1.08a5 5 0 0 1-1.93-5.79c1.94-5.46 9-11.31 17.87-14.92 9.82-4 19.67-4.35 24.51-.93a4.83 4.83 0 0 1 1.78 5.42c-1.82 5.55-8.87 11.49-17.94 15.14zm-7.58-17.73c-8.39 3.4-15 8.77-16.7 13.7a2.9 2.9 0 0 0 1.13 3.39c4.29 2.85 13.5 2.32 22.39-1.27 8.4-3.4 15.14-9 16.77-13.88a2.76 2.76 0 0 0-1-3.1c-4.25-2.96-13.53-2.48-22.58 1.18l-.01-.02z" fill="#F2F2F0" fill-rule="nonzero" mask="url(#c)"/><ellipse fill="#7D728E" fill-rule="nonzero" mask="url(#c)" transform="rotate(-22.02 1023.542 561.36)" cx="1023.542" cy="561.361" rx="23.47" ry="11.26"/><ellipse fill="#D9D4C1" fill-rule="nonzero" mask="url(#c)" transform="rotate(-22.02 1024.337 564.324)" cx="1024.337" cy="564.324" rx="23.47" ry="11.26"/><path d="M1188 578.48c-19.28 1.55-36.87-3.11-43.77-11.62a9.22 9.22 0 0 1-.2-11.37c6.49-8.62 22.22-15.12 40.07-16.56 19.67-1.59 37.39 3.24 44.08 12a9 9 0 0 1 .15 10.62c-6.33 8.83-22.16 15.45-40.33 16.93zm-3.59-35.73c-16.81 1.36-31.47 7.26-37.33 15a5.4 5.4 0 0 0 .11 6.66c6 7.45 22.7 11.65 40.5 10.22 16.83-1.36 31.92-7.52 37.54-15.33a5.14 5.14 0 0 0-.08-6.07c-5.84-7.62-22.59-11.94-40.73-10.48h-.01z" fill="#F2F2F0" fill-rule="nonzero" mask="url(#c)"/><ellipse fill="#7D728E" fill-rule="nonzero" mask="url(#c)" transform="rotate(-4.61 1186.253 555.141)" cx="1186.253" cy="555.141" rx="43.72" ry="20.97"/><ellipse fill="#D9D4C1" fill-rule="nonzero" mask="url(#c)" transform="rotate(-4.61 1186.004 560.883)" cx="1186.004" cy="560.883" rx="43.72" ry="20.97"/><path d="M1315.93 541.58c-6.54-1-12-3.87-13.69-7.23a3.15 3.15 0 0 1 .81-3.8c2.82-2.37 8.56-3.33 14.62-2.44 6.68 1 12.2 3.95 13.76 7.38a3.07 3.07 0 0 1-.77 3.55c-2.79 2.45-8.57 3.44-14.73 2.54zm1.55-12.18c-5.7-.84-11 0-13.59 2.15a1.85 1.85 0 0 0-.47 2.23c1.44 2.95 6.67 5.62 12.7 6.51 5.71.84 11.21-.05 13.68-2.23a1.76 1.76 0 0 0 .44-2c-1.36-3.06-6.61-5.76-12.77-6.66h.01z" fill="#F2F2F0" fill-rule="nonzero" mask="url(#c)"/><ellipse fill="#7D728E" fill-rule="nonzero" mask="url(#c)" transform="rotate(-81.64 1317.156 533.675)" cx="1317.156" cy="533.675" rx="7.17" ry="14.94"/><ellipse fill="#D9D4C1" fill-rule="nonzero" mask="url(#c)" transform="rotate(-81.64 1316.639 535.564)" cx="1316.639" cy="535.564" rx="7.17" ry="14.94"/><ellipse fill="#D9D4C1" fill-rule="nonzero" mask="url(#c)" transform="rotate(-10.972 1122.54 536.221)" cx="1122.54" cy="536.221" rx="7.657" ry="3.624"/><ellipse fill="#D9D4C1" fill-rule="nonzero" mask="url(#c)" transform="rotate(-78.43 1292.066 584.418)" cx="1292.066" cy="584.418" rx="3.63" ry="7.67"/><ellipse fill="#D9D4C1" fill-rule="nonzero" mask="url(#c)" transform="rotate(-85.11 1405.427 518.57)" cx="1405.427" cy="518.57" rx="3.63" ry="7.67"/><ellipse fill="#D9D4C1" fill-rule="nonzero" mask="url(#c)" transform="rotate(-21.78 1014.304 501.59)" cx="1014.304" cy="501.591" rx="7.67" ry="3.63"/><path d="M675.76 479.25a146.1 146.1 0 0 0-118.91 61.06c-28.22-30.92-75.24-35.522-108.92-10.66-26.875-72.312-96.675-119.603-173.797-117.75-77.123 1.853-144.572 52.44-167.943 125.96-35.658-20.976-81.365-12.011-106.458 20.88-25.092 32.89-21.662 79.342 7.988 108.19 29.651 28.85 76.18 31.004 108.37 5.019 31.387 64.16 97.608 103.823 168.986 101.213 71.378-2.61 134.526-47.003 161.144-113.283 25.645 20.01 60.714 22.912 89.3 7.39 21.472 72.23 94.292 116.34 168.253 101.914 73.96-14.425 124.869-82.666 117.624-157.67-7.245-75.006-70.273-132.241-145.627-132.244l-.01-.02z" fill="#F99D78" fill-rule="nonzero" mask="url(#c)"/><g mask="url(#c)" fill-rule="nonzero"><g transform="translate(306 -377)"><circle fill="#6D8F99" cx="270.3" cy="270.98" r="237.28"/><ellipse fill="#7D728E" transform="rotate(-58.76 156.487 414.957)" cx="156.487" cy="414.957" rx="22.77" ry="47.48"/><ellipse fill="#6C8187" transform="rotate(-58.76 156.487 414.957)" cx="156.487" cy="414.957" rx="22.77" ry="47.48"/><ellipse fill="#8FA4AA" transform="rotate(-58.76 160.352 410.067)" cx="160.352" cy="410.067" rx="22.77" ry="47.48"/><ellipse fill="#7D728E" transform="rotate(-27.36 372.726 433.776)" cx="372.726" cy="433.776" rx="32.36" ry="15.52"/><ellipse fill="#6C8187" transform="rotate(-27.36 372.726 433.776)" cx="372.726" cy="433.776" rx="32.36" ry="15.52"/><ellipse fill="#8FA4AA" transform="rotate(-27.36 371.252 429.797)" cx="371.252" cy="429.797" rx="32.36" ry="15.52"/><ellipse fill="#7D728E" transform="rotate(-1.146 278.863 385.855)" cx="278.863" cy="385.855" rx="32.366" ry="15.523"/><ellipse fill="#6C8187" transform="rotate(-1.146 278.863 385.855)" cx="278.863" cy="385.855" rx="32.366" ry="15.523"/><ellipse fill="#8FA4AA" transform="rotate(-1.31 279.164 379.954)" cx="279.164" cy="379.954" rx="32.36" ry="15.52"/><ellipse fill="#000" opacity=".18" style="mix-blend-mode:multiply" transform="rotate(-78.43 261.883 452.287)" cx="261.883" cy="452.287" rx="6" ry="12.67"/><ellipse fill="#000" opacity=".18" style="mix-blend-mode:multiply" transform="rotate(-23.51 394.663 384.97)" cx="394.663" cy="384.97" rx="11.33" ry="5.37"/><circle fill="#D5D9DB" opacity=".13" cx="270.3" cy="270.98" r="270.28"/></g></g><path d="M369.64-45.9a100.76 100.76 0 0 0-29.23-21.54L190.2-177.72l-348 314 118 170 2.35-2.23c27.428 21.816 66.716 20.176 92.23-3.85a70.18 70.18 0 0 0 21-38.77c28.438 11.453 60.912 5.762 83.76-14.68 10.497 18.78 32.308 28.156 53.159 22.853 20.85-5.303 35.531-23.96 35.781-45.473 29.697 12.005 63.75 3.248 83.972-21.593 20.222-24.842 21.888-59.963 4.108-86.607a101.05 101.05 0 0 0 33-161.82l.08-.01z" fill="#4E687A" fill-rule="nonzero" mask="url(#c)"/><g mask="url(#c)" fill-rule="nonzero"><path d="M152.65 106.5c-.53 2.63-2.24 8.16-7.38 10.54a.21.21 0 0 0 0 .4c1.53.46 5.5 2.31 7.57 9.2a.22.22 0 0 0 .42 0c.42-2.3 2-7.71 7.87-9.14a.22.22 0 0 0 0-.42c-2-.65-6.76-3-8.08-10.56a.22.22 0 0 0-.4-.02z" fill="#E8E0CB"/><path d="M44.65 214.6c-.53 2.63-2.24 8.16-7.38 10.54a.21.21 0 0 0 0 .4c1.53.46 5.5 2.31 7.57 9.2a.22.22 0 0 0 .42 0c.42-2.3 2-7.71 7.87-9.14a.22.22 0 0 0 0-.42c-2-.65-6.76-3-8.08-10.56a.22.22 0 0 0-.4-.02z" fill="#7D9199"/><path d="M978.7 486.7c-.53 2.63-2.24 8.16-7.38 10.55a.21.21 0 0 0 0 .4c1.53.46 5.5 2.31 7.57 9.2a.22.22 0 0 0 .42 0c.42-2.3 2-7.7 7.87-9.14a.22.22 0 0 0 0-.42c-2-.65-6.76-3-8.08-10.56a.22.22 0 0 0-.4-.03z" fill="#625872"/><path d="M1075.38 259.5c-.53 2.63-2.24 8.16-7.38 10.54a.21.21 0 0 0 0 .4c1.53.46 5.5 2.31 7.57 9.2a.22.22 0 0 0 .42 0c.42-2.3 2-7.71 7.87-9.14a.22.22 0 0 0 0-.42c-2-.65-6.76-3-8.08-10.56a.22.22 0 0 0-.4-.02z" fill="#E8E0CB"/><path d="M1412 213.42c-.29 1.43-1.21 4.43-4 5.73a.12.12 0 0 0 0 .22c.83.25 3 1.25 4.11 5a.12.12 0 0 0 .23 0 5.93 5.93 0 0 1 4.27-5 .12.12 0 0 0 0-.23c-1.09-.35-3.67-1.61-4.39-5.73a.12.12 0 0 0-.22.01z" fill="#617C92"/><path d="M75.7 467.29c-.53 2.63-2.24 8.16-7.38 10.54a.21.21 0 0 0 0 .4c1.53.46 5.5 2.31 7.57 9.2a.22.22 0 0 0 .42 0c.42-2.3 2-7.7 7.87-9.14a.22.22 0 0 0 0-.42c-2-.65-6.76-3-8.08-10.56a.22.22 0 0 0-.4-.02zM1274.71 85.5c-.53 2.63-2.24 8.16-7.38 10.54a.21.21 0 0 0 0 .4c1.53.46 5.5 2.31 7.57 9.2a.22.22 0 0 0 .42 0c.42-2.3 2-7.71 7.87-9.14a.22.22 0 0 0 0-.42c-2-.65-6.76-3-8.08-10.56a.22.22 0 0 0-.4-.02zM682.77 515.07c-.53 2.63-2.24 8.16-7.38 10.54a.21.21 0 0 0 0 .4c1.53.46 5.5 2.31 7.57 9.2a.22.22 0 0 0 .42 0c.42-2.3 2-7.71 7.87-9.14a.22.22 0 0 0 0-.42c-2-.65-6.76-3-8.08-10.56a.22.22 0 0 0-.4-.02zm-468.19 21.66c-.53 2.63-2.24 8.16-7.38 10.54a.21.21 0 0 0 0 .4c1.53.46 5.5 2.31 7.57 9.2a.22.22 0 0 0 .42 0c.42-2.3 2-7.71 7.87-9.14a.22.22 0 0 0 0-.42c-2-.65-6.76-3-8.08-10.56a.22.22 0 0 0-.4-.02z" fill="#E8E0CB"/><path d="M298.37 478.24c-.53 2.63-2.24 8.16-7.38 10.54a.21.21 0 0 0 0 .4c1.53.46 5.5 2.31 7.57 9.2a.22.22 0 0 0 .42 0c.42-2.3 2-7.71 7.87-9.14a.22.22 0 0 0 0-.42c-2-.65-6.76-3-8.08-10.56a.22.22 0 0 0-.4-.02z" fill="#473F54"/><path d="M1342.3 362.17c-.29 1.44-1.23 4.47-4 5.78a.12.12 0 0 0 0 .22c.84.25 3 1.27 4.15 5a.12.12 0 0 0 .23 0 6 6 0 0 1 4.31-5 .12.12 0 0 0 0-.23c-1.1-.36-3.71-1.63-4.43-5.79a.13.13 0 1 0-.26.02z" fill="#FFF"/><path d="M881.34 219.8c-.53 2.63-2.24 8.16-7.38 10.54a.21.21 0 0 0 0 .4c1.53.46 5.5 2.31 7.57 9.2a.22.22 0 0 0 .42 0c.42-2.3 2-7.71 7.87-9.14a.22.22 0 0 0 0-.42c-2-.65-6.76-3-8.08-10.56a.22.22 0 0 0-.4-.02z" fill="#625872"/><path d="M58.87 31.42C58.34 34 56.64 39.58 51.49 42a.21.21 0 0 0 0 .4c1.53.46 5.5 2.31 7.57 9.2a.22.22 0 0 0 .42 0c.42-2.3 2-7.71 7.87-9.14a.22.22 0 0 0 0-.42c-2-.65-6.76-3-8.08-10.56a.22.22 0 0 0-.4-.06z" fill="#E8E0CB"/><path d="M309.87 33.31c-.53 2.63-2.24 8.16-7.38 10.54a.21.21 0 0 0 0 .4c1.53.46 5.5 2.31 7.57 9.2a.22.22 0 0 0 .42 0c.41-2.3 2-7.7 7.87-9.14a.22.22 0 0 0 0-.42c-2-.65-6.76-3-8.08-10.56a.22.22 0 0 0-.4-.02z" fill="#7D9199"/><path d="M771.23 166.83c-.53 2.63-2.24 8.16-7.38 10.55a.21.21 0 0 0 0 .4c1.53.46 5.5 2.31 7.57 9.2a.22.22 0 0 0 .42 0c.42-2.3 2-7.71 7.87-9.14a.22.22 0 0 0 0-.42c-2-.65-6.76-3-8.08-10.56a.22.22 0 0 0-.4-.03z" fill="#E8E0CB"/><path d="M1091.526 146.119c-.53 2.63-2.24 8.16-7.38 10.54a.21.21 0 0 0 0 .4c1.53.46 5.5 2.31 7.57 9.2a.22.22 0 0 0 .42 0c.42-2.3 2-7.71 7.87-9.14a.22.22 0 0 0 0-.42c-2-.65-6.76-3-8.08-10.56a.22.22 0 0 0-.4-.02z" fill="#473F54"/></g><g mask="url(#c)"><g transform="translate(1263 193)"><path d="M49.36 51l4.68-4.15 2.31 2.6a3.13 3.13 0 0 1-.26 4.41 3.13 3.13 0 0 1-4.42-.26L49.36 51z" fill="#F99D78" fill-rule="nonzero"/><path fill="#625872" fill-rule="nonzero" d="M45.56 49.323l7.232-6.419 2.722 3.067-7.233 6.418z"/><path fill="#7D9199" fill-rule="nonzero" d="M26.688 35.085l14.21-12.612 15.659 17.643-14.21 12.612z"/><path fill="#625872" fill-rule="nonzero" d="M29.494 34.151l7.253-6.382 2.706 3.075-7.253 6.382z"/><path fill="#473F54" fill-rule="nonzero" d="M33.864 37.078l7.6-6.744 7.72 8.698-7.6 6.744z"/><path fill="#625872" fill-rule="nonzero" d="M26.62 22.283l1.555-1.38 3.843 4.33-1.555 1.38z"/><path d="M29.52 12.78a7.43 7.43 0 0 1-11.11 9.86l11.11-9.86z" fill="#ED8370" fill-rule="nonzero"/><circle fill="#E8E0CB" fill-rule="nonzero" transform="rotate(-41.59 22.16 15.775)" cx="22.159" cy="15.775" r="2.59"/><path fill="#625872" fill-rule="nonzero" d="M33.88 37.1l4.42-8.01 7.47 8.41-4.17 8.3z"/><ellipse fill="#7D9199" fill-rule="nonzero" transform="rotate(-41.59 40.84 35.837)" cx="40.841" cy="35.837" rx="1" ry="1"/><path fill="#7D9199" fill-rule="nonzero" d="M47.234 29.78l4.982-4.42 2.177 2.453-4.981 4.421z"/><g transform="translate(48)"><mask id="e" fill="#fff"><use xlink:href="#d"/></mask><use fill="#625872" fill-rule="nonzero" xlink:href="#d"/><path d="M16.38 32.08a.49.49 0 0 1-.69 0L1.88 16.52a.492.492 0 0 1 .74-.65l13.81 15.56a.49.49 0 0 1-.05.65zm5.5-5.08a.49.49 0 0 1-.69 0L7.38 11.44a.492.492 0 1 1 .74-.65l13.81 15.56a.49.49 0 0 1-.05.65zm5.51-5.13a.49.49 0 0 1-.69 0L12.89 6.31a.492.492 0 0 1 .74-.65l13.81 15.56a.49.49 0 0 1-.05.65zm5.51-5.11a.49.49 0 0 1-.69 0L18.4 1.2a.492.492 0 1 1 .74-.65l13.81 15.56a.49.49 0 0 1-.05.65z" fill="#473F54" fill-rule="nonzero" mask="url(#e)"/><path d="M29.43 1.44l-28 24.85a.492.492 0 0 1-.65-.74L28.78.7a.492.492 0 0 1 .65.74zm3.92 5.28l-28 24.85a.492.492 0 0 1-.65-.74l28-24.85a.492.492 0 1 1 .65.74z" fill="#473F54" fill-rule="nonzero" mask="url(#e)"/></g><path fill="#7D9199" fill-rule="nonzero" d="M35.462 44.598l-4.981 4.42-2.177-2.453 4.98-4.42z"/><g transform="translate(0 42)"><mask id="g" fill="#fff"><use xlink:href="#f"/></mask><use fill="#625872" fill-rule="nonzero" xlink:href="#f"/><path d="M33.54 17.45a.49.49 0 0 1-.69 0L19 1.85a.492.492 0 1 1 .74-.65l13.81 15.56a.49.49 0 0 1-.01.69zm-5.72 4.86a.49.49 0 0 1-.69 0L13.32 6.75a.492.492 0 0 1 .74-.65l13.81 15.56a.49.49 0 0 1-.05.65zm-5.73 4.86a.49.49 0 0 1-.69 0L7.59 11.61a.492.492 0 0 1 .74-.65l13.81 15.56a.49.49 0 0 1-.05.65zM16.37 32a.49.49 0 0 1-.69 0L1.87 16.44a.492.492 0 1 1 .74-.65l13.81 15.56a.49.49 0 0 1-.05.65z" fill="#473F54" fill-rule="nonzero" mask="url(#g)"/><path d="M29.56 1.92l-28 24.85a.492.492 0 0 1-.65-.74l28-24.85a.492.492 0 1 1 .65.74zm4.78 4.52l-28 24.85a.492.492 0 0 1-.65-.74l28-24.85a.492.492 0 1 1 .65.74z" fill="#473F54" fill-rule="nonzero" mask="url(#g)"/></g></g></g><g mask="url(#c)"><g transform="translate(916 322)"><mask id="i" fill="#fff"><use xlink:href="#h"/></mask><use fill="#FFF2D9" fill-rule="nonzero" xlink:href="#h"/><path fill="#BCB199" fill-rule="nonzero" mask="url(#i)" d="M4.43 46.7l1.008-.884 9.275 10.58-1.007.883zm7.148-5.982l1.008-.883 9.273 10.581-1.008.883zM44.276 12.05l1.009-.884 9.27 10.585-1.009.883zm6.737-6.15l1.008-.883 9.268 10.587-1.009.883zM36.987 63.305l27.722-24.278.883 1.008-27.723 24.278zm3.711 5.413l27.723-24.277.882 1.008-27.722 24.277zm4.148 4.812l27.722-24.277.883 1.008-27.722 24.277zm4.164 4.535l27.722-24.278.883 1.008-27.722 24.278z"/></g></g><rect fill="#ED8370" fill-rule="nonzero" mask="url(#c)" transform="rotate(-41.2 948.28 365.04)" x="944.82" y="361.58" width="6.92" height="6.92" rx="1.57"/><path d="M125.14 405.23l-11.48 1.33a.14.14 0 0 1-.16-.17l2.37-11.32a8.48 8.48 0 1 1 9.27 10.16z" fill="#ED8370" fill-rule="nonzero" mask="url(#c)"/><path d="M127 400.33l-7.51.87a.09.09 0 0 1-.1-.08l1.55-7.4a5.54 5.54 0 1 1 6.06 6.64v-.03z" fill="#F99D78" fill-rule="nonzero" mask="url(#c)"/><path d="M128.48 396.29l-4.22.49a.05.05 0 0 1-.06 0l.87-4.16a3.12 3.12 0 1 1 3.41 3.74v-.07z" fill="#E8E0CB" fill-rule="nonzero" mask="url(#c)"/><path fill="#373242" fill-rule="nonzero" mask="url(#c)" transform="rotate(47.61 133.974 387.66)" d="M122.059 384.645h23.83v6.03h-23.83z"/><path d="M141.71 362.11s-10.93-17.93-31.44.12a.76.76 0 0 0 .75 1.3c5.13-1.79 13.74-2.79 17.87 8.21m31.42 10.75s16.86 12.52-3 31.3a.76.76 0 0 1-1.22-.87c2.25-4.94 4-13.43-6.54-18.55" fill="#7D728E" fill-rule="nonzero" mask="url(#c)"/><path d="M124.93 375l21.51 23.57s42.56-42.49 40.11-57.37a3.58 3.58 0 0 0-4.18-2.88c-6.37 1.15-23.62 7.12-57.44 36.68z" fill="#373242" fill-rule="nonzero" mask="url(#c)"/><path d="M124.93 375l21.51 23.57s42.56-42.49 40.11-57.37a3.58 3.58 0 0 0-4.18-2.88c-6.37 1.15-23.62 7.12-57.44 36.68z" fill="#625872" fill-rule="nonzero" mask="url(#c)"/><g mask="url(#c)"><g transform="translate(123 362)"><mask id="k" fill="#fff"><use xlink:href="#j"/></mask><use fill="#7D9199" fill-rule="nonzero" xlink:href="#j"/><path fill="#566366" fill-rule="nonzero" mask="url(#k)" d="M26.722 16.688l10.234 11.211L23.7 40.001 13.465 28.789z"/><circle fill="#373242" fill-rule="nonzero" mask="url(#k)" transform="rotate(-42.41 26.606 19.099)" cx="26.606" cy="19.099" r="1"/><circle fill="#373242" fill-rule="nonzero" mask="url(#k)" transform="rotate(-42.38 23.625 21.846)" cx="23.625" cy="21.846" r="1"/><circle fill="#373242" fill-rule="nonzero" mask="url(#k)" transform="rotate(-42.38 20.68 24.528)" cx="20.679" cy="24.528" r="1"/><circle fill="#373242" fill-rule="nonzero" mask="url(#k)" transform="rotate(-42.37 17.74 27.207)" cx="17.74" cy="27.207" r="1"/></g></g><g opacity=".18" style="mix-blend-mode:multiply" mask="url(#c)" fill-rule="nonzero" fill="#000"><circle transform="rotate(-42.39 541.472 -3.025)" cx="11.021" cy="10.807" r="7.24"/></g><g mask="url(#c)"><g transform="translate(151 356)"><mask id="m" fill="#fff"><use xlink:href="#l"/></mask><use fill="#DBD4C6" fill-rule="nonzero" transform="rotate(-42.39 8.02 8.807)" xlink:href="#l"/><path fill="#FFF" fill-rule="nonzero" opacity=".5" mask="url(#m)" d="M1.985 10.026l.302-1.48 11.73 2.394-.301 1.48zm.293-3.797l.297-1.48L14.31 7.103l-.298 1.48z"/></g></g><g opacity=".18" style="mix-blend-mode:multiply" mask="url(#c)" fill-rule="nonzero" fill="#000"><circle transform="rotate(-42.38 535.035 -33.2)" cx="6.284" cy="6.608" r="4.32"/></g><g mask="url(#c)"><g transform="translate(166 348)"><mask id="o" fill="#fff"><use xlink:href="#n"/></mask><use fill="#DBD4C6" fill-rule="nonzero" transform="rotate(-42.38 5.294 4.598)" xlink:href="#n"/><path fill="#FFF" fill-rule="nonzero" opacity=".5" mask="url(#o)" d="M.08 4.47l.223-.881 8.702 1.43-.224.882zm.467-1.58l.224-.882 8.702 1.43-.224.882z"/></g></g><ellipse fill="#000" fill-rule="nonzero" opacity=".07" mask="url(#c)" cx="1196.6" cy="474.26" rx="139.45" ry="15.92"/><path fill="#7D728E" fill-rule="nonzero" mask="url(#c)" d="M1256.45 323.94h48.6v151.9h-48.6zm-149.46 15.08h22.13v136.82h-22.13z"/><g opacity=".18" style="mix-blend-mode:multiply" mask="url(#c)" fill-rule="nonzero" fill="#000"><circle cx="13.75" cy="13.7" r="12.77" transform="translate(1267 343)"/></g><g mask="url(#c)"><g transform="translate(1270 347)"><mask id="q" fill="#fff"><use xlink:href="#p"/></mask><use fill="#DBD4C6" fill-rule="nonzero" xlink:href="#p"/><path fill="#FFF" fill-rule="nonzero" opacity=".5" mask="url(#q)" d="M2.762 16.665L19.79 4.17l.988 1.347L3.75 18.01zM.79 14.036L17.817 1.542l.988 1.346L1.778 15.383z"/></g></g><g opacity=".18" style="mix-blend-mode:multiply" mask="url(#c)" fill-rule="nonzero" fill="#000"><circle cx="13.75" cy="13.75" r="12.77" transform="translate(1267 376)"/></g><g mask="url(#c)"><g transform="translate(1270 380)"><mask id="s" fill="#fff"><use xlink:href="#r"/></mask><use fill="#DBD4C6" fill-rule="nonzero" xlink:href="#r"/><path fill="#FFF" fill-rule="nonzero" opacity=".5" mask="url(#s)" d="M2.764 16.72L19.792 4.227l.988 1.347L3.752 18.067zM.772 14.062L17.8 1.568l.988 1.346L1.76 15.41z"/></g></g><path fill="#677A7F" fill-rule="nonzero" mask="url(#c)" d="M1126.13 445.76h139.34v5h-139.34z"/><path fill="#677A7F" fill-rule="nonzero" mask="url(#c)" d="M1133.53 449.8h2.78v26.04h-2.78zm15.74 0h2.78v26.04h-2.78zm14.8 0h2.78v26.04h-2.78zm14.79 0h2.78v26.04h-2.78zm14.8 0h2.78v26.04h-2.78zm14.8 0h2.78v26.04h-2.78zm14.8 0h2.78v26.04h-2.78zm14.8 0h2.78v26.04h-2.78zm14.8 0h2.78v26.04h-2.78z"/><path fill="#566366" fill-rule="nonzero" mask="url(#c)" d="M1136.3 450.76h2.13v25.08h-2.13zm15.74 0h2.13v25.08h-2.13zm14.8 0h2.13v25.08h-2.13zm14.6 0h2.13v25.08h-2.13zm14.67 0h2.13v25.08h-2.13zm15.13 0h2.13v25.08h-2.13zm14.8 0h2.13v25.08h-2.13zm14.67 0h2.13v25.08h-2.13zm14.67 0h2.13v25.08h-2.13z"/><path fill="#7D728E" fill-rule="nonzero" mask="url(#c)" d="M1156.11 301.87h26.66v128.07h-26.66z"/><path fill="#625872" fill-rule="nonzero" mask="url(#c)" d="M1169.3 429.94v15.82h-29.29l16.1-15.82z"/><path fill="#ED8370" fill-rule="nonzero" mask="url(#c)" d="M1169.3 429.94v15.82h29.57l-16.1-15.82z"/><path fill="#625872" fill-rule="nonzero" mask="url(#c)" d="M1169.3 429.94v15.82h29.57l-16.1-15.82z"/><path fill="#615B6B" fill-rule="nonzero" mask="url(#c)" d="M1156.11 301.87h26.66v4.26h-26.66z"/><circle fill="#E8E0CB" fill-rule="nonzero" mask="url(#c)" cx="1313" cy="417.75" r="1.34"/><g opacity=".18" style="mix-blend-mode:multiply" mask="url(#c)" fill-rule="nonzero" fill="#000"><path d="M1169.3 429.94v15.82h29.57l-16.1-15.82z"/></g><path fill="#7D9199" fill-rule="nonzero" mask="url(#c)" d="M1205.71 343.93h27.39v93.93h-27.39z"/><path fill="#ED8370" fill-rule="nonzero" mask="url(#c)" d="M1205.71 343.93h27.39v18.65h-27.39z"/><g opacity=".54" mask="url(#c)" fill-rule="nonzero" fill="#566366"><path d="M1218.48 362.57h1.67v75.28h-1.67z"/></g><path fill="#E8E0CB" fill-rule="nonzero" mask="url(#c)" d="M1211.63 381.45h15.73v9.62h-15.73z"/><path fill="#F99D78" fill-rule="nonzero" mask="url(#c)" d="M1215.7 413.84h6.85v24.01h-6.85zm-4.07-64.78h4.07v9.62h-4.07zm11.83 0h4.07v9.62h-4.07z"/><path fill="#7D9199" fill-rule="nonzero" mask="url(#c)" d="M1209.22 322.78h19.8v21.14h-19.8z"/><path fill="#E8E0CB" fill-rule="nonzero" mask="url(#c)" d="M1209.22 322.78l5.37-9.25V292.8h8.87v20.73l5.57 9.25h-19.81"/><path fill="#566366" fill-rule="nonzero" mask="url(#c)" d="M1233.1 437.85h13.42l-7.78-10.32v-22.58l-5.64-7.35zm-27.39 0h-13.42l7.77-10.32v-22.58l5.65-7.35z"/><path fill="#7D9199" fill-rule="nonzero" mask="url(#c)" d="M1214.59 292.8l4.54-19.25 4.33 19.25z"/><path fill="#7D9199" fill-rule="nonzero" mask="url(#c)" d="M1218.47 244.31h1.3v43.31h-1.3zm-60.97 45.4h1.3v12.16h-1.3z"/><g mask="url(#c)" fill-rule="nonzero" fill="#615B6B"><path d="M1182.77 329.81h-26.66a1.11 1.11 0 1 1 0-2.22h23.64L1155.39 307a1.11 1.11 0 1 1 1.43-1.69l26.66 22.58a1.11 1.11 0 0 1-.72 2l.01-.08z"/><path d="M1182.77 352.39h-26.66a1.11 1.11 0 0 1-.72-2l26.66-22.58a1.11 1.11 0 0 1 1.44 1.69l-24.35 20.62h23.63a1.11 1.11 0 1 1 0 2.22v.05z"/><path d="M1182.77 329.81h-26.66a1.11 1.11 0 1 1 0-2.22h23.64L1155.39 307a1.11 1.11 0 1 1 1.43-1.69l26.66 22.58a1.11 1.11 0 0 1-.72 2l.01-.08zm0 67.74h-26.66a1.11 1.11 0 0 1-.72-2l26.66-22.55a1.11 1.11 0 0 1 1.44 1.69l-24.35 20.62h23.64a1.11 1.11 0 1 1 0 2.22l-.01.02z"/><path d="M1182.77 375h-26.66a1.11 1.11 0 1 1 0-2.22h23.64l-24.35-20.62a1.11 1.11 0 1 1 1.43-1.69l26.66 22.53a1.11 1.11 0 0 1-.72 2zm0 45.61h-26.66a1.11 1.11 0 0 1 0-2.22h23.64l-24.35-20.62a1.11 1.11 0 1 1 1.43-1.69l26.66 22.58a1.11 1.11 0 0 1-.72 2v-.05z"/></g><path fill="#7D9199" fill-rule="nonzero" mask="url(#c)" d="M1076.99 419.09h15.82v56.75h-15.82z"/><path fill="#566366" fill-rule="nonzero" mask="url(#c)" d="M1073.06 427.53h23.69v4.63h-23.69zm0 15.74h23.69v4.63h-23.69zm0 15.74h23.69v4.63h-23.69z"/><path fill="#7D9199" fill-rule="nonzero" mask="url(#c)" d="M1076.99 398.01h15.82v14.78h-15.82z"/><path fill="#566366" fill-rule="nonzero" opacity=".5" mask="url(#c)" d="M1084.9 398.01h7.91v14.78h-7.91z"/><g mask="url(#c)"><g transform="translate(1064 372)"><mask id="u" fill="#fff"><use xlink:href="#t"/></mask><use fill="#7D9199" fill-rule="nonzero" xlink:href="#t"/><path fill="#566366" fill-rule="nonzero" opacity=".5" mask="url(#u)" d="M20.9-5.36h23.46v27.39H20.9z"/></g></g><circle fill="#E8E0CB" fill-rule="nonzero" mask="url(#c)" cx="1084.9" cy="363.54" r="4.86"/><circle fill="#E8E0CB" fill-rule="nonzero" mask="url(#c)" cx="1084.9" cy="352.53" r="2.81"/><circle fill="#E8E0CB" fill-rule="nonzero" mask="url(#c)" cx="1084.9" cy="344.66" r="1.9"/><circle fill="#E8E0CB" fill-rule="nonzero" mask="url(#c)" cx="1084.9" cy="338.36" r="1.18"/><g opacity=".18" style="mix-blend-mode:multiply" mask="url(#c)" fill-rule="nonzero" fill="#000"><circle cx="8.06" cy="8.27" r="7.97" transform="translate(1110 356)"/></g><g mask="url(#c)"><g transform="translate(1112 358)"><mask id="w" fill="#fff"><use xlink:href="#v"/></mask><use fill="#DBD4C6" fill-rule="nonzero" xlink:href="#v"/><path fill="#FFF" fill-rule="nonzero" opacity=".5" mask="url(#w)" d="M1 10.77L11.668 3l.985 1.353-10.668 7.77zm-1.51-2.4L10.106.577l.988 1.346L.48 9.717z"/></g></g><g opacity=".18" style="mix-blend-mode:multiply" mask="url(#c)" fill-rule="nonzero" fill="#000"><circle cx="8.06" cy="8.75" r="7.97" transform="translate(1110 387)"/></g><g mask="url(#c)"><g transform="translate(1111 389)"><mask id="y" fill="#fff"><use xlink:href="#x"/></mask><use fill="#DBD4C6" fill-rule="nonzero" xlink:href="#x"/><path fill="#FFF" fill-rule="nonzero" opacity=".5" mask="url(#y)" d="M2.09 11.206l10.616-7.795.989 1.346-10.616 7.795zM.515 8.96l10.618-7.79.988 1.346-10.618 7.791z"/></g></g><g opacity=".18" style="mix-blend-mode:multiply" mask="url(#c)" fill-rule="nonzero" fill="#000"><circle cx="8.06" cy="8.23" r="7.97" transform="translate(1110 419)"/></g><g mask="url(#c)"><g transform="translate(1112 421)"><mask id="A" fill="#fff"><use xlink:href="#z"/></mask><use fill="#DBD4C6" fill-rule="nonzero" xlink:href="#z"/><path fill="#FFF" fill-rule="nonzero" opacity=".5" mask="url(#A)" d="M1.132 10.831L11.75 3.04l.988 1.346L2.12 12.178zM-.511 8.32L10.104.525l.989 1.346L.477 9.666z"/></g></g><circle fill="#E8E0CB" fill-rule="nonzero" mask="url(#c)" cx="1219.02" cy="242.92" r="2.92"/><circle fill="#E8E0CB" fill-rule="nonzero" mask="url(#c)" cx="1158.15" cy="290.13" r="2.92"/><path fill="#7D9199" fill-rule="nonzero" mask="url(#c)" d="M1205.68 437.83h3.7v7.94h-3.7zm7.87 0h3.7v7.94h-3.7zm7.87 0h3.7v7.94h-3.7zm7.87 0h3.7v7.94h-3.7z"/><g opacity=".12" mask="url(#c)" fill-rule="nonzero" fill="#000"><path d="M1118.06 339.02h11.07v136.82h-11.07z"/></g><g opacity=".12" mask="url(#c)" fill-rule="nonzero" fill="#000"><path d="M1169.44 301.87h13.33v128.07h-13.33z"/></g><path fill="#000" fill-rule="nonzero" opacity=".12" mask="url(#c)" d="M1229.03 343.93v-21.15h-10.55v115.07h14.62v-93.92zm51.72-19.99h24.3v151.9h-24.3z"/><path fill="#D78277" fill-rule="nonzero" mask="url(#c)" d="M1265.46 421.01h53.82v54.82h-53.82zm0 0v-8.18l12.02 8.18z"/><path fill="#E8E0CB" fill-rule="nonzero" mask="url(#c)" d="M1266.84 419.64v-4.21l6.18 4.21z"/><path fill="#D78277" fill-rule="nonzero" mask="url(#c)" d="M1277.37 421.01v-8.18l12.02 8.18z"/><path fill="#D78277" fill-rule="nonzero" mask="url(#c)" d="M1289.28 421.01v-8.18l12.02 8.18z"/><path fill="#E8E0CB" fill-rule="nonzero" mask="url(#c)" d="M1278.69 419.81v-4.21l6.19 4.21zm11.97-.11v-4.22l6.18 4.22z"/><path fill="#7D728E" fill-rule="nonzero" mask="url(#c)" d="M1297.52 447.04h14.14v28.8h-14.14z"/><g opacity=".18" style="mix-blend-mode:multiply" mask="url(#c)" fill-rule="nonzero" fill="#000"><circle cx="7.37" cy="7.21" r="6.9" transform="translate(1270 429)"/></g><g mask="url(#c)"><g transform="translate(1272 431)"><mask id="C" fill="#fff"><use xlink:href="#B"/></mask><use fill="#DBD4C6" fill-rule="nonzero" xlink:href="#B"/><path fill="#FFF" fill-rule="nonzero" opacity=".5" mask="url(#C)" d="M0 7.252L9.198.5l.533.726L.533 7.977zm1 1.48L10.242 2l.531.729-9.242 6.732z"/></g></g><g opacity=".18" style="mix-blend-mode:multiply" mask="url(#c)" fill-rule="nonzero" fill="#000"><circle cx="7.58" cy="7.33" r="6.9" transform="translate(1269 451)"/></g><g mask="url(#c)"><g transform="translate(1271 453)"><mask id="E" fill="#fff"><use xlink:href="#D"/></mask><use fill="#DBD4C6" fill-rule="nonzero" xlink:href="#D"/><path fill="#FFF" fill-rule="nonzero" opacity=".5" mask="url(#E)" d="M1.221 8.948l9.2-6.749.533.726-9.2 6.748zM.191 7.632L9.39.88l.533.726L.724 8.358z"/></g></g><path fill="#000" fill-rule="nonzero" opacity=".12" mask="url(#c)" d="M1290.66 421.01h28.62v54.82h-28.62z"/><circle fill="#DBD4C6" fill-rule="nonzero" mask="url(#c)" cx="1309.24" cy="461.76" r="1.06"/><path fill="#7D728E" fill-rule="nonzero" mask="url(#c)" d="M1309.32 397.6h1v23.42h-1z"/><circle fill="#D78277" fill-rule="nonzero" mask="url(#c)" cx="1309.83" cy="398.34" r="2.92"/><path fill="#7D728E" fill-rule="nonzero" mask="url(#c)" d="M1265.46 421.01h53.82v1.78h-53.82z"/><path fill="#D78277" fill-rule="nonzero" mask="url(#c)" d="M1126.48 422.49h24.6v53.32h-24.6z"/><path fill="#7D728E" fill-rule="nonzero" mask="url(#c)" d="M1126.48 442.09h15.77v9.59h-15.77zm8.83 16.93h15.77v9.59h-15.77z"/><circle fill="#E8E0CB" fill-rule="nonzero" mask="url(#c)" cx="1129.57" cy="443.15" r="1"/><circle fill="#E8E0CB" fill-rule="nonzero" mask="url(#c)" cx="1131.48" cy="443.15" r="1"/><circle fill="#E8E0CB" fill-rule="nonzero" mask="url(#c)" cx="1133.4" cy="443.15" r="1"/><circle fill="#E8E0CB" fill-rule="nonzero" mask="url(#c)" cx="1135.31" cy="443.15" r="1"/><circle fill="#E8E0CB" fill-rule="nonzero" mask="url(#c)" cx="1137.23" cy="443.15" r="1"/><circle fill="#E8E0CB" fill-rule="nonzero" mask="url(#c)" cx="1139.15" cy="443.15" r="1"/><circle fill="#E8E0CB" fill-rule="nonzero" mask="url(#c)" cx="1140.98" cy="443.15" r="1"/><circle fill="#E8E0CB" fill-rule="nonzero" mask="url(#c)" cx="1140.98" cy="448.86" r="1"/><circle fill="#E8E0CB" fill-rule="nonzero" mask="url(#c)" cx="1140.98" cy="446.9" r="1"/><circle fill="#E8E0CB" fill-rule="nonzero" mask="url(#c)" cx="1140.98" cy="445.01" r="1"/><circle fill="#E8E0CB" fill-rule="nonzero" mask="url(#c)" cx="1129.57" cy="450.62" r="1"/><circle fill="#E8E0CB" fill-rule="nonzero" mask="url(#c)" cx="1127.78" cy="443.13" r="1"/><circle fill="#E8E0CB" fill-rule="nonzero" mask="url(#c)" cx="1127.78" cy="450.6" r="1"/><circle fill="#E8E0CB" fill-rule="nonzero" mask="url(#c)" cx="1131.48" cy="450.62" r="1"/><circle fill="#E8E0CB" fill-rule="nonzero" mask="url(#c)" cx="1133.4" cy="450.62" r="1"/><circle fill="#E8E0CB" fill-rule="nonzero" mask="url(#c)" cx="1135.31" cy="450.62" r="1"/><circle fill="#E8E0CB" fill-rule="nonzero" mask="url(#c)" cx="1137.23" cy="450.62" r="1"/><circle fill="#E8E0CB" fill-rule="nonzero" mask="url(#c)" cx="1139.15" cy="450.62" r="1"/><circle fill="#E8E0CB" fill-rule="nonzero" mask="url(#c)" cx="1140.98" cy="450.62" r="1"/><circle fill="#E8E0CB" fill-rule="nonzero" mask="url(#c)" cx="1148.01" cy="460.09" r="1"/><circle fill="#E8E0CB" fill-rule="nonzero" mask="url(#c)" cx="1146.1" cy="460.09" r="1"/><circle fill="#E8E0CB" fill-rule="nonzero" mask="url(#c)" cx="1144.18" cy="460.09" r="1"/><circle fill="#E8E0CB" fill-rule="nonzero" mask="url(#c)" cx="1142.27" cy="460.09" r="1"/><circle fill="#E8E0CB" fill-rule="nonzero" mask="url(#c)" cx="1140.35" cy="460.09" r="1"/><circle fill="#E8E0CB" fill-rule="nonzero" mask="url(#c)" cx="1138.43" cy="460.09" r="1"/><circle fill="#E8E0CB" fill-rule="nonzero" mask="url(#c)" cx="1136.6" cy="460.09" r="1"/><circle fill="#E8E0CB" fill-rule="nonzero" mask="url(#c)" cx="1136.6" cy="465.8" r="1"/><circle fill="#E8E0CB" fill-rule="nonzero" mask="url(#c)" cx="1136.6" cy="463.84" r="1"/><circle fill="#E8E0CB" fill-rule="nonzero" mask="url(#c)" cx="1136.6" cy="461.95" r="1"/><circle fill="#E8E0CB" fill-rule="nonzero" mask="url(#c)" cx="1148.01" cy="467.56" r="1"/><circle fill="#E8E0CB" fill-rule="nonzero" mask="url(#c)" cx="1149.8" cy="460.07" r="1"/><circle fill="#E8E0CB" fill-rule="nonzero" mask="url(#c)" cx="1149.8" cy="467.54" r="1"/><circle fill="#E8E0CB" fill-rule="nonzero" mask="url(#c)" cx="1146.1" cy="467.56" r="1"/><circle fill="#E8E0CB" fill-rule="nonzero" mask="url(#c)" cx="1144.18" cy="467.56" r="1"/><circle fill="#E8E0CB" fill-rule="nonzero" mask="url(#c)" cx="1142.27" cy="467.56" r="1"/><circle fill="#E8E0CB" fill-rule="nonzero" mask="url(#c)" cx="1140.35" cy="467.56" r="1"/><circle fill="#E8E0CB" fill-rule="nonzero" mask="url(#c)" cx="1138.43" cy="467.56" r="1"/><circle fill="#E8E0CB" fill-rule="nonzero" mask="url(#c)" cx="1136.6" cy="467.56" r="1"/><path fill="#F99D78" fill-rule="nonzero" mask="url(#c)" d="M1126.48 433.95h24.6v1.37h-24.6zm2.72-11.46h1.31v11.46h-1.31zm4.29 0h1.31v11.46h-1.31zm4.29 0h1.31v11.46h-1.31zm4.29 0h1.31v11.46h-1.31zm4.28 0h1.31v11.46h-1.31z"/><path fill="#000" fill-rule="nonzero" opacity=".12" mask="url(#c)" d="M1151.09 435.32v-12.83h-13.31v53.32h13.31v-40.49z"/><path fill="#7D728E" fill-rule="nonzero" mask="url(#c)" d="M1144.61 399.07h1v23.42h-1z"/><circle fill="#D78277" fill-rule="nonzero" mask="url(#c)" cx="1145.13" cy="399.82" r="2.92"/><path d="M929.849 351.994l-.926.724a.72.72 0 0 1-.95-.06l-2.002-1.987a1.598 1.598 0 0 1 .134-2.394l3.744 3.717zm21.353-16.682l.926-.724a.72.72 0 0 0 .172-.935l-1.445-2.424a1.598 1.598 0 0 0-2.355-.449l2.702 4.532z" fill="#BCB199"/><path fill="#E7DFCA" d="M930.408 331.234l.564-.44-6.5-8.319-.563.44z"/><path d="M925.922 321.653a2.012 2.012 0 0 1-.338 2.825 2.012 2.012 0 0 1-2.823-.355 2.012 2.012 0 0 1 .338-2.825 2.012 2.012 0 0 1 2.823.355" fill="#F69D79"/><path d="M949.141 330.999c4.989 6.385 3.889 15.58-2.457 20.538-6.345 4.957-15.533 3.8-20.521-2.585-4.99-6.385-3.89-15.58 2.456-20.538s15.534-3.8 20.522 2.585" fill="#FFF2D9"/><g transform="rotate(-38 955.431 -1168.728)"><mask id="G" fill="#fff"><use xlink:href="#F"/></mask><use fill="#A7B6BA" xlink:href="#F"/><path fill-opacity=".25" fill="#FEFEFE" mask="url(#G)" d="M3.535 19.887l-1.264-1.734L24.12 2.023l1.264 1.734zm-2.514-3.342l-1.264-1.733 21.848-16.13L22.869.415z"/></g></g></svg>